<?xml version="1.0" encoding="UTF-8"?>
<svg version="1.1" xmlns="http://www.w3.org/2000/svg" width="1500" height="300">
<path d="M0 0 C24.65240592 -2.23823821 24.65240592 -2.23823821 31.40625 2.4375 C34.86673557 5.52937286 37.48457363 9.12393793 40 13 C40.39123047 13.56041992 40.78246094 14.12083984 41.18554688 14.69824219 C43.72340893 18.33584446 45.89905384 22.09755288 48 26 C48.52980469 26.9178125 49.05960938 27.835625 49.60546875 28.78125 C59.73752482 47.32629864 62 67.17182745 62 88 C92.36 88 122.72 88 154 88 C154 93.28 154 98.56 154 104 C123.64 104 93.28 104 62 104 C62.33 117.53 62.66 131.06 63 145 C65.64 142.03 68.28 139.06 71 136 C82.66987642 125.69485853 93.35250113 119.41555869 109.10546875 119.72265625 C120.21129803 120.51354279 129.60779946 126.18641213 137.1875 134.125 C144.64388098 142.9654996 149.6414539 154.05998431 149.24609375 165.78125 C147.2838319 183.4727537 137.34023796 196.08825245 124.1875 207.3125 C113.68158832 215.37321554 102.36633519 220.33163987 89 219 C78.46449125 216.34538362 70.43221752 206.43221752 63 199 C62.67 206.26 62.34 213.52 62 221 C53 218 53 218 40 212 C40 176.36 40 140.72 40 104 C1.39 104 -37.22 104 -77 104 C-76.9175 117.261875 -76.835 130.52375 -76.75 144.1875 C-76.72631348 150.43143677 -76.72631348 150.43143677 -76.70214844 156.80151367 C-76.66886309 160.58545166 -76.66886309 160.58545166 -76.63043213 164.36933899 C-76.61597154 166.033721 -76.60905249 167.6981804 -76.60845947 169.36262512 C-76.59540267 182.89735452 -76.25809439 196.04275659 -66.140625 206.25390625 C-61.37659941 210.13989063 -56.37105086 211.58744594 -50.1875 211.2734375 C-39.76200654 209.97025082 -30.75754463 206.05057025 -24.1171875 197.60546875 C-19.00488781 189.4489102 -14.95336031 180.29117325 -14.79467773 170.58886719 C-14.77473251 169.50804871 -14.75478729 168.42723022 -14.73423767 167.31365967 C-14.71752518 166.15312073 -14.70081268 164.99258179 -14.68359375 163.796875 C-14.6524221 162.00748505 -14.6524221 162.00748505 -14.62062073 160.1819458 C-14.55523761 156.37135577 -14.49629224 152.56069686 -14.4375 148.75 C-14.39430411 146.16665954 -14.35068948 143.58332605 -14.30664062 141 C-14.19877977 134.66673625 -14.09962207 128.33342018 -14 122 C-5.42 122 3.16 122 12 122 C12 155.99 12 189.98 12 225 C8.1783871 224.23567742 5.61128002 223.52948841 2.171875 221.96875 C0.84929687 221.37126953 0.84929687 221.37126953 -0.5 220.76171875 C-1.4075 220.34535156 -2.315 219.92898437 -3.25 219.5 C-4.17296875 219.08363281 -5.0959375 218.66726562 -6.046875 218.23828125 C-12.85575303 215.14424697 -12.85575303 215.14424697 -14 214 C-14.45459858 211.34536879 -14.70243238 208.67810862 -15 206 C-15.58265625 206.44730469 -16.1653125 206.89460937 -16.765625 207.35546875 C-30.28716817 217.32654382 -43.46742313 220.28248375 -60 219 C-73.67893743 216.59204283 -85.60331877 208.85358834 -93.71875 197.62109375 C-100.94294429 186.30673064 -101.42099988 175.45120081 -101.29296875 162.3984375 C-101.28736336 160.70879495 -101.28309772 159.01914749 -101.28010559 157.32949829 C-101.26873096 152.91373894 -101.23932869 148.49828248 -101.20599365 144.0826416 C-101.17513227 139.56425065 -101.16156614 135.04581005 -101.14648438 130.52734375 C-101.11445073 121.68474233 -101.06174449 112.84244391 -101 104 C-105.95 104 -110.9 104 -116 104 C-116 98.72 -116 93.44 -116 88 C-64.85 87.67 -13.7 87.34 39 87 C37.63545715 72.60220031 37.63545715 72.60220031 34.375 58.875 C33.98586426 57.63218262 33.98586426 57.63218262 33.58886719 56.36425781 C30.89538243 48.11921926 27.29202942 40.52238608 23 33 C22.62359375 32.33516602 22.2471875 31.67033203 21.859375 30.98535156 C16.9446567 22.42964613 11.46684836 14.75250946 4.84667969 7.42724609 C2.60883198 4.94872979 1.06954292 3.20862876 0 0 Z M67 151 C64.74591631 154.38112553 64.65678368 156.1163425 65.20703125 160.078125 C68.14107074 170.8892656 74.51044862 180.81020601 82 189 C82.55171875 189.63164062 83.1034375 190.26328125 83.671875 190.9140625 C90.69660253 198.50745845 100.71334448 205.41723349 111.27734375 206.16015625 C117.47841172 205.89515335 121.75107062 203.44572189 126 199 C132.3777555 190.27477795 135.46324646 181.86229803 134 171 C129.9671536 158.85545874 121.12772482 149.10971466 110 143 C92.9221715 134.44733549 80.2606479 137.38840868 67 151 Z " fill="#000000" transform="translate(131,4)"/>
<path d="M0 0 C56.67567568 0 56.67567568 0 65 7 C70.97941354 14.75662811 72.88604289 22.28121701 72 32 C70.6925982 37.86287994 67.70420133 42.34600346 64 47 C63.01 47.495 63.01 47.495 62 48 C62.72445312 48.38929688 63.44890625 48.77859375 64.1953125 49.1796875 C73.09171915 54.32774148 77.65863223 60.32052207 81 70 C81.95173043 77.30397771 81.14745985 83.82541089 77 90 C71.80477041 95.90784957 65.86489184 99.58489167 57.92633057 100.26226807 C54.23908807 100.34634755 50.56291608 100.33732153 46.875 100.29296875 C45.68390625 100.28994751 44.4928125 100.28692627 43.265625 100.28381348 C38.84366104 100.26819363 34.42182123 100.22631 30 100.1875 C20.1 100.125625 10.2 100.06375 0 100 C0 67 0 34 0 0 Z M22 22 C22 27.94 22 33.88 22 40 C25.91781142 40.13478709 29.83100266 40.23403037 33.75 40.3125 C34.86117187 40.35439453 35.97234375 40.39628906 37.1171875 40.43945312 C43.45149617 40.70998362 43.45149617 40.70998362 48.73828125 37.69921875 C50.38496911 34.17642831 50.48136022 31.85088176 50 28 C48.82725006 25.12608179 48.82725006 25.12608179 47 23 C43.99984088 21.99994696 42.02576244 21.88424415 38.89453125 21.90234375 C37.42016602 21.90717773 37.42016602 21.90717773 35.91601562 21.91210938 C34.37977539 21.92467773 34.37977539 21.92467773 32.8125 21.9375 C31.77673828 21.94201172 30.74097656 21.94652344 29.67382812 21.95117188 C27.1158608 21.96295974 24.55792314 21.98089518 22 22 Z M22 62 C22 67.61 22 73.22 22 79 C25.9168502 79.05390161 29.83296001 79.09362783 33.75 79.125 C34.86117187 79.14175781 35.97234375 79.15851563 37.1171875 79.17578125 C38.18710937 79.18222656 39.25703125 79.18867188 40.359375 79.1953125 C41.34389648 79.20578613 42.32841797 79.21625977 43.34277344 79.22705078 C46.05973111 78.99489618 47.68112513 78.39036273 50 77 C50 76.34 50 75.68 50 75 C50.66 75 51.32 75 52 75 C53.10504889 69.95780988 53.10504889 69.95780988 51.6875 65.125 C50.17274837 62.9104069 50.17274837 62.9104069 48 62 C46.0406396 61.91489795 44.07837206 61.89282344 42.1171875 61.90234375 C40.36728516 61.90717773 40.36728516 61.90717773 38.58203125 61.91210938 C37.35871094 61.92048828 36.13539063 61.92886719 34.875 61.9375 C33.64394531 61.94201172 32.41289063 61.94652344 31.14453125 61.95117188 C28.09633361 61.96298659 25.04816084 61.9809225 22 62 Z " fill="#EE7E19" transform="translate(826,100)"/>
<path d="M0 0 C21.45 0.33 42.9 0.66 65 1 C65 8.26 65 15.52 65 23 C51.14 23 37.28 23 23 23 C23 28.61 23 34.22 23 40 C36.86 40 50.72 40 65 40 C65 47.26 65 54.52 65 62 C51.32236756 62.60983075 37.69212059 63.13293321 24 63 C23.67 67.62 23.34 72.24 23 77 C24.85516235 76.99214478 24.85516235 76.99214478 26.74780273 76.98413086 C31.31924725 76.96608439 35.89068859 76.95456929 40.4621582 76.94506836 C42.44393441 76.94002733 44.42570689 76.93319462 46.4074707 76.92456055 C49.24952109 76.91248485 52.09152247 76.90676955 54.93359375 76.90234375 C55.82525742 76.89718246 56.71692108 76.89202118 57.63560486 76.88670349 C59.75740601 76.88650823 61.8791078 76.9378997 64 77 C69.42627353 82.42627353 65 92.32609038 65 100 C43.55 100 22.1 100 0 100 C0 67 0 34 0 0 Z " fill="#ED7E19" transform="translate(629,100)"/>
<path d="M0 0 C4.39570216 -0.08852235 8.7911694 -0.14089579 13.1875 -0.1875 C14.41404297 -0.21263672 15.64058594 -0.23777344 16.90429688 -0.26367188 C33.71001779 -0.39669869 49.68084883 4.03620896 62 16 C71.49677157 27.17378083 75.3523811 40.01745561 74.8828125 54.65234375 C73.25739174 69.66260687 65.67286904 80.99288361 54.0625 90.375 C39.26455736 100.63529226 18.4025757 101.50493972 1 100 C-0.93224465 98.06775535 -0.12018438 95.16389611 -0.12442017 92.59291077 C-0.12082489 91.67078293 -0.11722961 90.74865509 -0.11352539 89.79858398 C-0.11367142 88.83283447 -0.11381744 87.86708496 -0.1139679 86.87207031 C-0.11326834 83.66338901 -0.10547397 80.45476497 -0.09765625 77.24609375 C-0.09579222 75.02791882 -0.09436825 72.80974348 -0.09336853 70.59156799 C-0.08954216 64.74059929 -0.07971086 58.88965523 -0.06866455 53.03869629 C-0.05845299 47.07332696 -0.05387146 41.10795367 -0.04882812 35.14257812 C-0.03808869 23.42837456 -0.02101085 11.71418933 0 0 Z M24 23 C24 41.15 24 59.3 24 78 C34.609742 76.9390258 40.22435231 74.90492231 47 67 C51.77758482 59.84976326 52.83043082 53.49508287 52 45 C50.54039556 39.81912683 48.55374357 35.09473341 45 31 C44.34 31 43.68 31 43 31 C42.67 30.01 42.34 29.02 42 28 C36.44615985 23.79474245 30.96659896 23.6966599 24 23 Z " fill="#ED7D19" transform="translate(1098,100)"/>
<path d="M0 0 C21.12 0 42.24 0 64 0 C64.33 7.26 64.66 14.52 65 22 C51.47 22 37.94 22 24 22 C24 27.61 24 33.22 24 39 C37.2 39 50.4 39 64 39 C64 46.26 64 53.52 64 61 C59.11151334 61.81474778 54.6652751 62.1321353 49.7578125 62.09765625 C48.98944061 62.0962413 48.22106873 62.09482635 47.42941284 62.09336853 C44.99456761 62.08780683 42.55981706 62.0752616 40.125 62.0625 C38.46614717 62.05748004 36.80729288 62.05291801 35.1484375 62.04882812 C31.0989223 62.03784998 27.04947716 62.02061206 23 62 C23 66.62 23 71.24 23 76 C24.45148438 75.98839844 25.90296875 75.97679687 27.3984375 75.96484375 C39.65143648 75.89810969 51.7728017 76.19159019 64 77 C64 84.26 64 91.52 64 99 C42.88 99 21.76 99 0 99 C0 66.33 0 33.66 0 0 Z " fill="#EE7E19" transform="translate(1182,101)"/>
<path d="M0 0 C4.17690777 -0.09607326 8.35284034 -0.17219354 12.53051758 -0.21972656 C13.945356 -0.23958394 15.36011531 -0.26667966 16.7746582 -0.30175781 C32.71247903 -0.68648334 46.25529316 3.02705804 58.75 13.25 C59.4925 14.1575 60.235 15.065 61 16 C61.63550781 16.76957031 62.27101563 17.53914063 62.92578125 18.33203125 C72.12427 30.08658999 75.2702113 43.12673216 73.5 57.9375 C72.06001026 65.28339358 68.68995701 71.57790461 65 78 C64.33871094 79.17949219 64.33871094 79.17949219 63.6640625 80.3828125 C57.95994481 89.19826711 46.99246764 94.60732391 37 97 C28.36037805 98.82179949 20.06134806 99.25457865 11.25 99.125 C10.0640625 99.11597656 8.878125 99.10695313 7.65625 99.09765625 C4.77061093 99.07438497 1.88542145 99.04169684 -1 99 C-1.02338499 89.04509865 -1.04104622 79.09020405 -1.05181217 69.13528061 C-1.05698468 64.51058721 -1.06397714 59.88591289 -1.07543945 55.26123047 C-1.08647211 50.78079293 -1.09231897 46.3003735 -1.09487724 41.8199234 C-1.09669543 40.12830572 -1.10024347 38.4366888 -1.10573006 36.74507904 C-1.14389512 24.46626087 -0.71357067 12.2579821 0 0 Z M23 22 C23 40.48 23 58.96 23 78 C34.67560932 75.66487814 41.26861418 73.68749705 48 64 C51.63030599 57.82075576 51.81329778 50.99620933 51 44 C48.94866821 36.22203363 43.86903206 29.97617851 37.5625 25.125 C32.74308425 23.00915894 28.26401371 22 23 22 Z " fill="#EE7E19" transform="translate(707,101)"/>
<path d="M0 0 C34.45081967 0 34.45081967 0 44 5 C44.72445313 5.37640625 45.44890625 5.7528125 46.1953125 6.140625 C55.15473739 11.42516714 61.18506847 20.06494755 64 30 C64.6875 33.4375 64.6875 33.4375 65 37 C65.06445312 37.65355469 65.12890625 38.30710938 65.1953125 38.98046875 C65.7792729 49.66694412 61.59918459 59.76044667 55 68 C54.34 68.66 53.68 69.32 53 70 C53.34845674 73.91318164 54.80236976 76.8124985 56.72265625 80.1953125 C57.26083984 81.15824219 57.79902344 82.12117188 58.35351562 83.11328125 C59.19946289 84.60408203 59.19946289 84.60408203 60.0625 86.125 C61.18416297 88.10350653 62.30032701 90.08514375 63.41015625 92.0703125 C63.90652588 92.94445801 64.40289551 93.81860352 64.91430664 94.71923828 C66 97 66 97 66 100 C57.42 100 48.84 100 40 100 C38.68 97.40125 37.36 94.8025 36 92.125 C35.58234375 91.30789551 35.1646875 90.49079102 34.734375 89.64892578 C34.40953125 89.0042334 34.0846875 88.35954102 33.75 87.6953125 C33.41484375 87.03547363 33.0796875 86.37563477 32.734375 85.69580078 C32 84 32 84 32 82 C29.36 82.33 26.72 82.66 24 83 C24 88.61 24 94.22 24 100 C16.08 100 8.16 100 0 100 C0 67 0 34 0 0 Z M17 23 C17 35.21 17 47.42 17 60 C25.67003648 60 29.16109855 59.51416696 36 55 C40.95202058 49.92719843 41.27053457 45.55826592 41.234375 38.7421875 C40.94119165 35.31194227 39.86490027 32.87505459 38 30 C37.34 30 36.68 30 36 30 C35.67 29.01 35.34 28.02 35 27 C33.22696088 25.74821186 33.22696088 25.74821186 31 24.8125 C30.278125 24.46832031 29.55625 24.12414062 28.8125 23.76953125 C25.03915875 22.6041338 25.03915875 22.6041338 17 23 Z " fill="#ED7D19" transform="translate(1257,100)"/>
<path d="M0 0 C7.92 0 15.84 0 24 0 C24.0093457 2.16014648 24.01869141 4.32029297 24.02832031 6.54589844 C24.06208603 13.68265727 24.11763245 20.8191268 24.18390274 27.95565414 C24.22341389 32.28262602 24.25558434 36.60939329 24.27099609 40.93652344 C24.28613899 45.11241533 24.32054162 49.28774484 24.36830902 53.46338654 C24.38314741 55.05653241 24.39104243 56.64975857 24.39188385 58.24297333 C24.39424803 60.47476673 24.42127938 62.70499896 24.45410156 64.93652344 C24.46298401 66.20671326 24.47186646 67.47690308 24.48101807 68.7855835 C25.08731631 72.54081071 26.00716571 73.73030527 29 76 C31.85767202 76.64722706 34.01567914 76.28422103 37 76 C40.24849977 74.27773504 40.24849977 74.27773504 41 71 C41.11824282 68.71598294 41.17698899 66.4287459 41.20532227 64.1418457 C41.21522186 63.44890411 41.22512146 62.75596252 41.23532104 62.04202271 C41.2668896 59.75331022 41.29167503 57.46457699 41.31640625 55.17578125 C41.33697979 53.58822594 41.35797637 52.00067606 41.37937927 50.41313171 C41.43455861 46.23583372 41.48398612 42.05848663 41.53222656 37.88110352 C41.5824718 33.61795688 41.63814209 29.3548815 41.69335938 25.09179688 C41.80089036 16.7279232 41.90184519 8.36398897 42 0 C49.92 0 57.84 0 66 0 C66.02277774 7.56396337 66.04104445 15.12791356 66.05181217 22.69190311 C66.05698544 26.20582944 66.06397936 29.71973068 66.07543945 33.23364258 C66.0885908 37.29248263 66.09327403 41.35129718 66.09765625 45.41015625 C66.10281754 46.64516373 66.10797882 47.8801712 66.11329651 49.15260315 C66.11527308 80.55831742 66.11527308 80.55831742 56.05859375 91.2421875 C50.97574728 95.58237899 44.70527959 98.58092003 38 99 C37.27425781 99.05027344 36.54851562 99.10054688 35.80078125 99.15234375 C26.91758981 99.50097764 17.94039429 97.83624066 11 92 C2.70857373 83.63694154 -0.13421792 76.50421342 -0.11352539 64.70947266 C-0.11367142 64.00633942 -0.11381744 63.30320618 -0.1139679 62.57876587 C-0.11327584 60.27383245 -0.1055168 57.96898166 -0.09765625 55.6640625 C-0.09578956 54.05838058 -0.09436684 52.45269808 -0.09336853 50.84701538 C-0.08956315 46.63517668 -0.07974988 42.42337284 -0.06866455 38.21154785 C-0.05840777 33.90796378 -0.05386179 29.60437404 -0.04882812 25.30078125 C-0.03812573 16.86716977 -0.02054507 8.43359325 0 0 Z " fill="#EE7E19" transform="translate(357,101)"/>
<path d="M0 0 C7.59 0 15.18 0 23 0 C23.02505615 1.70349609 23.0501123 3.40699219 23.07592773 5.16210938 C23.16060298 10.85777 23.24882438 16.55336872 23.33933926 22.24893951 C23.39397056 25.69441647 23.44727861 29.13990222 23.49731445 32.58544922 C23.7733383 53.81249151 23.7733383 53.81249151 25 75 C25.66 75 26.32 75 27 75 C27 75.66 27 76.32 27 77 C30.96 77 34.92 77 39 77 C40.74376021 72.46285702 41.26707115 68.65100226 41.31884766 63.80126953 C41.33391609 62.76120003 41.33391609 62.76120003 41.34928894 61.70011902 C41.37996958 59.42769129 41.39711343 57.15538054 41.4140625 54.8828125 C41.43278636 53.29954024 41.45236068 51.71627784 41.4727478 50.13302612 C41.52394644 45.9804466 41.56363754 41.82783478 41.60089111 37.67510986 C41.64100796 33.43176359 41.69206516 29.18855029 41.7421875 24.9453125 C41.83880148 16.63029273 41.92224042 8.31521749 42 0 C49.59 0 57.18 0 65 0 C65.13612521 9.70188821 65.24595757 19.40313131 65.31087303 29.10576248 C65.34204592 33.61221344 65.38425742 38.11797128 65.45263672 42.62402344 C65.51833655 46.98129737 65.55381134 51.33790913 65.56926346 55.69564056 C65.58025992 57.349316 65.60173151 59.00295951 65.63438034 60.65634918 C65.8450983 71.78057914 64.91918978 80.6691607 57.60507202 89.7276001 C56.3125 91.0625 56.3125 91.0625 54 93 C53.53078125 93.50015625 53.0615625 94.0003125 52.578125 94.515625 C46.81760288 99.93393788 37.98190886 99.43873444 30.59545898 99.34423828 C20.36774627 99.01846748 14.68276716 96.582825 7.171875 89.41015625 C1.02275678 82.58640455 -0.12885747 75.63933283 -0.11352539 66.6394043 C-0.11367142 65.91690994 -0.11381744 65.19441559 -0.1139679 64.45002747 C-0.11327422 62.07472678 -0.10550745 59.69950565 -0.09765625 57.32421875 C-0.09579013 55.67226708 -0.09436714 54.02031485 -0.09336853 52.36836243 C-0.08955861 48.02992208 -0.07974139 43.69151545 -0.06866455 39.35308838 C-0.0584176 34.92224585 -0.05386388 30.49139785 -0.04882812 26.06054688 C-0.03811771 17.37368075 -0.0205333 8.68684846 0 0 Z " fill="#EE7E19" transform="translate(916,100)"/>
<path d="M0 0 C6.41542314 4.02181624 10.708686 10.90582703 13.05078125 18.00390625 C13.2271036 20.58778603 13.30426572 23.05910942 13.27783203 25.63989258 C13.27812408 26.39164764 13.27841614 27.14340271 13.27871704 27.91793823 C13.2773291 30.39072405 13.26179336 32.86320463 13.24609375 35.3359375 C13.24236171 37.05514868 13.23951564 38.77436198 13.23751831 40.49357605 C13.22989689 45.00961216 13.21026123 49.5255188 13.18811035 54.04150391 C13.16761978 58.6533025 13.15850973 63.26512209 13.1484375 67.87695312 C13.12701389 76.91933675 13.09184392 85.96159046 13.05078125 95.00390625 C5.46078125 95.00390625 -2.12921875 95.00390625 -9.94921875 95.00390625 C-9.97894775 91.86242065 -9.97894775 91.86242065 -10.00927734 88.6574707 C-10.07622998 81.73232866 -10.15386884 74.80733599 -10.23674583 67.88236713 C-10.28665912 63.6843883 -10.33298953 59.48643403 -10.37109375 55.28833008 C-10.40800941 51.23576899 -10.45438629 47.18341585 -10.50728226 43.13103294 C-10.52579287 41.5861495 -10.54091312 40.04122154 -10.55256271 38.49627113 C-10.56948251 36.32973634 -10.59853046 34.16367432 -10.63037109 31.99731445 C-10.64369476 30.76487503 -10.65701843 29.53243561 -10.67074585 28.26264954 C-10.96155456 24.85955021 -11.43800094 21.51512406 -13.94921875 19.00390625 C-15.80209377 18.93164123 -17.65755753 18.92009405 -19.51171875 18.94140625 C-20.52363281 18.95042969 -21.53554688 18.95945312 -22.578125 18.96875 C-23.36058594 18.98035156 -24.14304687 18.99195312 -24.94921875 19.00390625 C-27.33075918 23.94242073 -28.33048865 27.56232537 -28.3815918 33.13256836 C-28.39178345 33.80658691 -28.4019751 34.48060547 -28.41247559 35.17504883 C-28.44239023 37.37720279 -28.45183782 39.57892032 -28.4609375 41.78125 C-28.47780028 43.31825685 -28.49595266 44.85525004 -28.51533508 46.39222717 C-28.56266803 50.41822034 -28.59258496 54.44415811 -28.61877441 58.47033691 C-28.64866472 62.58645563 -28.69516576 66.70238382 -28.74023438 70.81835938 C-28.82607734 78.88013013 -28.89196949 86.94188169 -28.94921875 95.00390625 C-36.53921875 95.00390625 -44.12921875 95.00390625 -51.94921875 95.00390625 C-52.03987489 85.39784263 -52.11313859 75.79206684 -52.15646744 66.18567085 C-52.17727147 61.72420378 -52.20545635 57.26304659 -52.25097656 52.80175781 C-52.29469258 48.48991764 -52.31840978 44.17837402 -52.32872772 39.86632919 C-52.33607318 38.22780571 -52.35041635 36.58929698 -52.37213898 34.95090103 C-52.48653961 25.95825268 -52.34736339 18.1214146 -47.94921875 10.00390625 C-47.39234375 8.93140625 -46.83546875 7.85890625 -46.26171875 6.75390625 C-35.18559004 -6.41770627 -14.72240188 -7.5234719 0 0 Z " fill="#EE7E19" transform="translate(488.94921875,104.99609375)"/>
<path d="M0 0 C0 6.6 0 13.2 0 20 C-7.6875 20.3125 -7.6875 20.3125 -10.08081055 20.38793945 C-14.46613248 20.6158276 -17.41663862 21.22512169 -21 24 C-22.53214888 27.06429776 -22.22938548 29.6165642 -22 33 C-20.25271222 36.72803465 -20.25271222 36.72803465 -17 39 C-14.70976745 39.24308095 -12.41775372 39.46947741 -10.125 39.6875 C-0.69852142 40.81023987 7.5042362 43.85299853 14.0625 51 C19.46359377 57.89920737 21.5735351 64.25358973 21 73 C19.16045928 82.40036488 14.9521405 90.46955589 7.00390625 96.02734375 C-0.34641809 99.59504504 -7.56635509 99.26133725 -15.58984375 99.1953125 C-16.88950577 99.1924826 -18.18916779 99.18965271 -19.5282135 99.18673706 C-22.96249255 99.17914655 -26.39659907 99.15953823 -29.83081055 99.1373291 C-33.34356351 99.11677121 -36.85634469 99.1077142 -40.36914062 99.09765625 C-47.24617123 99.07628734 -54.12305954 99.04114328 -61 99 C-61 92.4 -61 85.8 -61 79 C-32.29 78.505 -32.29 78.505 -3 78 C-3 77.34 -3 76.68 -3 76 C-2.34 76 -1.68 76 -1 76 C-0.91846067 74.41753293 -0.86056443 72.83383727 -0.8125 71.25 C-0.77769531 70.36828125 -0.74289062 69.4865625 -0.70703125 68.578125 C-1.08362598 65.26409135 -1.44505115 64.19267999 -4 62 C-7.17572806 61.0118401 -10.40578561 60.51180528 -13.6875 60 C-25.99247933 58.03846824 -33.47951433 54.27799708 -41 44 C-44.79174762 37.96129083 -45.82447592 30.99149088 -44.4375 24 C-41.41411963 14.21847527 -35.86196243 7.96037832 -27 3 C-18.3388266 -0.73619245 -9.26010895 -0.08819151 0 0 Z " fill="#ED7E19" transform="translate(1393,101)"/>
<path d="M0 0 C21.12 0 42.24 0 64 0 C64 7.26 64 14.52 64 22 C57.4 22 50.8 22 44 22 C44 47.74 44 73.48 44 100 C36.08 100 28.16 100 20 100 C20 74.26 20 48.52 20 22 C13.4 22 6.8 22 0 22 C0 14.74 0 7.48 0 0 Z " fill="#EE7E19" transform="translate(554,100)"/>
<path d="M0 0 C0 26.07 0 52.14 0 79 C8.25 79 16.5 79 25 79 C25 85.93 25 92.86 25 100 C8.83 100 -7.34 100 -24 100 C-24 67.33 -24 34.66 -24 1 C-4 0 -4 0 0 0 Z " fill="#EE7E19" transform="translate(1061,100)"/>
<path d="M0 0 C7.92 0 15.84 0 24 0 C24 33 24 66 24 100 C16.08 100 8.16 100 0 100 C0 67 0 34 0 0 Z " fill="#EE7D18" transform="translate(996,100)"/>
<path d="M0 0 C7.59 0 15.18 0 23 0 C23 33 23 66 23 100 C15.41 100 7.82 100 0 100 C0 67 0 34 0 0 Z " fill="#EE7E19" transform="translate(518,100)"/>
<path d="M0 0 C90.42 0 180.84 0 274 0 C274 1.32 274 2.64 274 4 C183.58 4 93.16 4 0 4 C0 2.68 0 1.36 0 0 Z " fill="#000000" transform="translate(13,292)"/>
<path d="M0 0 C90.42 0 180.84 0 274 0 C274 1.32 274 2.64 274 4 C183.58 4 93.16 4 0 4 C0 2.68 0 1.36 0 0 Z " fill="#000000" transform="translate(13,245)"/>
<path d="M0 0 C3.3 0 6.6 0 10 0 C11.98 4.95 13.96 9.9 16 15 C16.33 10.05 16.66 5.1 17 0 C19.31 0 21.62 0 24 0 C24 10.56 24 21.12 24 32 C21.03 32 18.06 32 15 32 C12.45768754 26.3893794 10.10490019 20.78847551 8 15 C7.67 20.61 7.34 26.22 7 32 C4.69 32 2.38 32 0 32 C0 21.44 0 10.88 0 0 Z " fill="#000000" transform="translate(77,255)"/>
<path d="M0 0 C2.93714051 2.57895264 3.90382389 3.91801873 4.25 7.8125 C4.1675 8.534375 4.085 9.25625 4 10 C1.36 10 -1.28 10 -4 10 C-4.103125 9.360625 -4.20625 8.72125 -4.3125 8.0625 C-4.539375 7.381875 -4.76625 6.70125 -5 6 C-5.99 5.67 -6.98 5.34 -8 5 C-7.71884546 8.40314146 -7.37907163 9.67160288 -4.75 11.94921875 C-3.8425 12.52285156 -2.935 13.09648437 -2 13.6875 C2.91954023 16.83908046 2.91954023 16.83908046 4 19 C4.58394161 26.24087591 4.58394161 26.24087591 2.125 29.4375 C-1.06876139 31.78585397 -2.94687803 32.18006311 -6.875 32.25 C-7.73867188 32.27578125 -8.60234375 32.3015625 -9.4921875 32.328125 C-12.53948098 31.9294137 -13.84685205 31.17750482 -16 29 C-16.8039548 26.30469001 -16.81419502 23.83352598 -17 21 C-14.36 21 -11.72 21 -9 21 C-8.67 22.32 -8.34 23.64 -8 25 C-6.68 25.33 -5.36 25.66 -4 26 C-4.32673015 22.96413236 -4.9571817 22.03939879 -7.25 19.9296875 C-8.1575 19.25164062 -9.065 18.57359375 -10 17.875 C-14.91116173 14.17767654 -14.91116173 14.17767654 -16 12 C-16.58203713 4.78273959 -16.58203713 4.78273959 -14.1875 1.5625 C-9.64339275 -1.68329089 -5.21640013 -1.37471917 0 0 Z " fill="#000000" transform="translate(48,255)"/>
<path d="M0 0 C2.875 1.4375 2.875 1.4375 5 4 C5.67249836 8.23368285 5.35115788 11.94652636 4 16 C4.33 16.721875 4.66 17.44375 5 18.1875 C6.4540956 22.27714388 5.95836483 24.75581289 5 29 C3.16542804 31.44609595 1.85879401 31.87528543 -1.125 32.30859375 C-4.79932493 32.50802257 -7.29054931 32.38068086 -10.5625 30.625 C-12.76723859 26.59895562 -12.64537399 22.49510486 -12 18 C-11.01 16.515 -11.01 16.515 -10 15 C-10.66 14.01 -11.32 13.02 -12 12 C-12.33470491 8.31824596 -12.4957479 5.89706762 -10.6875 2.625 C-7.55067597 -0.39564536 -4.15345754 -0.41534575 0 0 Z M-4 6 C-5.29633621 7.06645115 -5.29633621 7.06645115 -5.0625 9.5625 C-5.041875 10.366875 -5.02125 11.17125 -5 12 C-4.01 12 -3.02 12 -2 12 C-2 10.02 -2 8.04 -2 6 C-2.66 6 -3.32 6 -4 6 Z M-4 18 C-5.41577477 19.18424326 -5.41577477 19.18424326 -5.0625 22.5625 C-5.041875 23.696875 -5.02125 24.83125 -5 26 C-4.01 26 -3.02 26 -2 26 C-1.23043864 23.65466049 -1.23043864 23.65466049 -1 21 C-2.33378575 19.1645201 -2.33378575 19.1645201 -4 18 Z " fill="#000000" transform="translate(265,255)"/>
<path d="M0 0 C2.85898097 1.93672905 3.31517108 3.71559345 4 7 C4.14592795 9.82595087 4.23069215 12.61131409 4.25 15.4375 C4.270625 16.18837891 4.29125 16.93925781 4.3125 17.71289062 C4.34503078 22.33632722 3.92053804 25.20755376 1 29 C-1.38125912 31.38125912 -2.10707538 31.34521641 -5.375 31.4375 C-9.04636134 31.36655582 -9.71177751 31.26010322 -12.5625 28.6875 C-14 26 -14 26 -14 23 C-11.69 23 -9.38 23 -7 23 C-6.67 23.66 -6.34 24.32 -6 25 C-5.34 25 -4.68 25 -4 25 C-4 23.35 -4 21.7 -4 20 C-5.093125 20.0825 -6.18625 20.165 -7.3125 20.25 C-11 20 -11 20 -12.7109375 18.328125 C-14.27084116 15.51084446 -14.36972227 13.70444692 -14.3125 10.5 C-14.30863281 9.5615625 -14.30476562 8.623125 -14.30078125 7.65625 C-13.9093725 4.19965322 -13.10810514 1.895008 -10.375 -0.3125 C-6.79126963 -1.34989563 -3.58645704 -0.93095268 0 0 Z M-6 5 C-7.20561184 5.98267859 -7.20561184 5.98267859 -7.09765625 7.84765625 C-7.08605469 8.57855469 -7.07445312 9.30945313 -7.0625 10.0625 C-7.041875 11.361875 -7.02125 12.66125 -7 14 C-5.68 14 -4.36 14 -3 14 C-3 11.36 -3 8.72 -3 6 C-3.99 5.67 -4.98 5.34 -6 5 Z " fill="#000000" transform="translate(215,256)"/>
<path d="M0 0 C1.9375 1.3125 1.9375 1.3125 3 3 C3 4.32 3 5.64 3 7 C-0.375 7.125 -0.375 7.125 -4 7 C-4.66 6.34 -5.32 5.68 -6 5 C-6.33 6.98 -6.66 8.96 -7 11 C-5.63875 10.6596875 -5.63875 10.6596875 -4.25 10.3125 C-1 10 -1 10 1.3125 11.25 C4.32187365 14.37083193 4.27290713 17.74322237 4.2265625 21.9296875 C3.88333493 25.06607737 2.67219794 27.36307249 1 30 C-2.18503287 31.59251643 -5.5332405 31.39129761 -9 31 C-12.23613354 29.25746655 -12.82395315 28.52814056 -14 25 C-14.27741217 21.71314412 -14.27732266 18.42228974 -14.3125 15.125 C-14.34150391 14.22652344 -14.37050781 13.32804687 -14.40039062 12.40234375 C-14.44145011 8.12584025 -14.39879363 5.66834071 -12.16796875 1.9296875 C-8.15842534 -1.63916736 -5.02849332 -1.07753428 0 0 Z M-6 15 C-7.23267348 16.00836062 -7.23267348 16.00836062 -7.09765625 18.06640625 C-7.08605469 18.89011719 -7.07445312 19.71382813 -7.0625 20.5625 C-7.05347656 21.38878906 -7.04445312 22.21507812 -7.03515625 23.06640625 C-7.02355469 23.70449219 -7.01195312 24.34257812 -7 25 C-6.01 25 -5.02 25 -4 25 C-2.61091361 23.82889816 -2.61091361 23.82889816 -2.75 20.5625 C-2.8325 19.386875 -2.915 18.21125 -3 17 C-3.99 16.34 -4.98 15.68 -6 15 Z " fill="#000000" transform="translate(241,256)"/>
<path d="M0 0 C3.15052314 2.2385296 3.87610406 3.46311758 4.75 7.25 C4.87375 8.61125 4.87375 8.61125 5 10 C2.36 10 -0.28 10 -3 10 C-3.33 8.68 -3.66 7.36 -4 6 C-4.99 6 -5.98 6 -7 6 C-8.03158741 9.39768868 -8.13377596 12.52139963 -8.125 16.0625 C-8.12757812 17.10535156 -8.13015625 18.14820313 -8.1328125 19.22265625 C-8.12137157 22.08680628 -8.12137157 22.08680628 -7 25 C-6.01 25 -5.02 25 -4 25 C-3.67 23.35 -3.34 21.7 -3 20 C-0.36 20 2.28 20 5 20 C4.64 27.2 4.64 27.2 2 30.5 C-2.09124045 32.54562022 -5.50901297 32.82172045 -10 32 C-13.49890004 29.88608123 -14.70578686 28.88263941 -16 25 C-16.25074502 21.87936425 -16.23120311 18.75468234 -16.25 15.625 C-16.270625 14.77421875 -16.29125 13.9234375 -16.3125 13.046875 C-16.34251981 8.22869584 -16.22422898 4.86299132 -13 1 C-8.43746599 -1.28126701 -4.90352066 -1.27128313 0 0 Z " fill="#000000" transform="translate(126,255)"/>
<path d="M0 0 C5.94 0 11.88 0 18 0 C18 1.98 18 3.96 18 6 C14.37 6 10.74 6 7 6 C7 7.98 7 9.96 7 12 C10.3 12 13.6 12 17 12 C17 13.98 17 15.96 17 18 C13.7 18 10.4 18 7 18 C7 20.64 7 23.28 7 26 C10.63 26 14.26 26 18 26 C18 27.98 18 29.96 18 32 C12.06 32 6.12 32 0 32 C0 21.44 0 10.88 0 0 Z " fill="#000000" transform="translate(139,255)"/>
<path d="M0 0 C2.31 0 4.62 0 7 0 C7.99 2.97 8.98 5.94 10 9 C10.99 6.03 11.98 3.06 13 0 C15.31 0 17.62 0 20 0 C20 6.6 20 13.2 20 20 C18.35 20 16.7 20 15 20 C14.67 18.02 14.34 16.04 14 14 C13.34 15.98 12.68 17.96 12 20 C10.68 20 9.36 20 8 20 C7.34 17.69 6.68 15.38 6 13 C5.67 15.31 5.34 17.62 5 20 C3.35 20 1.7 20 0 20 C0 13.4 0 6.8 0 0 Z " fill="#000000" transform="translate(1422,101)"/>
<path d="M0 0 C0 10.23 0 20.46 0 31 C-2.31 31 -4.62 31 -7 31 C-7.33 24.07 -7.66 17.14 -8 10 C-9.32 10.33 -10.64 10.66 -12 11 C-12.375 7.75 -12.375 7.75 -12 4 C-7.72016931 0.0258715 -6.05306832 0 0 0 Z " fill="#000000" transform="translate(188,256)"/>
<path d="M0 0 C2.31 0 4.62 0 7 0 C7 10.56 7 21.12 7 32 C4.69 32 2.38 32 0 32 C0 21.44 0 10.88 0 0 Z " fill="#000000" transform="translate(61,255)"/>
<path d="M0 0 C4.95 0 9.9 0 15 0 C15 1.65 15 3.3 15 5 C13.35 5 11.7 5 10 5 C10 9.95 10 14.9 10 20 C8.68 20 7.36 20 6 20 C6 15.05 6 10.1 6 5 C4.02 5 2.04 5 0 5 C0 3.35 0 1.7 0 0 Z " fill="#000000" transform="translate(1406,101)"/>
</svg>
